<?xml version="1.0" encoding="utf-8"?><svg viewBox="0 0 18 25" xmlns="http://www.w3.org/2000/svg" xmlns:xlink="http://www.w3.org/1999/xlink"><style>:root>svg{display:none}:root>svg:target{display:block}</style><svg fill="none" viewBox="0 0 14 10" id="check" xmlns="http://www.w3.org/2000/svg"><path d="M13 1L4.75 9 1 5.364" stroke="#fff" stroke-width="2" stroke-linecap="round" stroke-linejoin="round"/></svg><svg viewBox="0 0 18 18" id="close" xmlns="http://www.w3.org/2000/svg"><defs><path id="ba" d="M691.485 160.07l-1.414 1.415-7.071-7.071-7.071 7.071-1.414-1.414 7.07-7.071-7.07-7.071 1.414-1.415 7.07 7.071 7.072-7.07 1.414 1.414-7.07 7.07z"/></defs><use fill="#fff" xlink:href="#ba" transform="translate(-674 -144)"/></svg><svg viewBox="0 0 13 24" id="p-left" xmlns="http://www.w3.org/2000/svg"><path fill-rule="evenodd" fill="#fff" d="M1.453 12l11.535 11.284-.721.705L.732 12.705.011 12l.721-.705L12.267.01l.721.705L1.453 12z"/></svg><svg fill="#fff" viewBox="0 0 14 25" id="p-right" xmlns="http://www.w3.org/2000/svg"><path fill-rule="evenodd" d="M12.107 12.5L.793 1.186 1.5.479l11.314 11.314.707.707-.707.707L1.5 24.521l-.707-.707L12.107 12.5z"/></svg></svg>